<svg width="80" height="80" viewBox="0 0 80 80" fill="none" xmlns="http://www.w3.org/2000/svg">
<path d="M56.2 23.8C56.5 23.3 57.1 23.1 57.6 23.4C58.5 23.9 59.2 24.7 59.5 25.7C59.8 26.7 59.7 27.7 59.2 28.7C59.1 28.9 58.9 29.1 58.6 29.2C58.5 29.2 58.4 29.2 58.3 29.2C58.1 29.2 58 29.2 57.8 29.1C57.3 28.8 57.1 28.2 57.4 27.7C57.6 27.3 57.7 26.8 57.5 26.3C57.4 25.8 57 25.5 56.6 25.2C56.1 24.9 55.9 24.3 56.2 23.8ZM18.4 36.3C18 36.1 17.7 35.7 17.6 35.2C17.5 34.7 17.5 34.3 17.8 33.8C18.1 33.3 17.9 32.7 17.4 32.4C16.9 32.1 16.3 32.3 16 32.8C15.5 33.7 15.3 34.7 15.6 35.7C15.9 36.7 16.5 37.5 17.4 38.1C17.6 38.2 17.7 38.2 17.9 38.2C18.3 38.2 18.6 38 18.8 37.7C18.9 37.5 19 37.2 18.9 36.9C18.8 36.7 18.7 36.4 18.4 36.3ZM61.2 49.1C61.3 49.1 61.4 49.1 61.5 49.1C63.5 48.5 64.7 46.3 64 44.2C63.8 43.7 63.2 43.4 62.7 43.5C62.2 43.7 61.8 44.3 62 44.8C62.1 45.3 62.1 45.7 61.9 46.2C61.7 46.6 61.3 46.9 60.9 47.1C60.4 47.3 60 47.9 60.2 48.4C60.3 48.9 60.8 49.1 61.2 49.1ZM24.4 55.5C23.4 55.6 22.5 54.9 22.4 53.9C22.3 53.3 21.8 52.9 21.3 53C21 53 20.8 53.2 20.6 53.4C20.4 53.6 20.3 53.9 20.4 54.2C20.5 55.2 21 56.2 21.8 56.8C22.5 57.4 23.4 57.7 24.2 57.7C24.3 57.7 24.5 57.7 24.6 57.7C24.9 57.7 25.1 57.5 25.3 57.3C25.5 57.1 25.6 56.8 25.5 56.5C25.5 55.9 25 55.5 24.4 55.5ZM66 40C67.3 41.5 68 43.4 68 45.4C68 48.5 66.2 51.3 63.5 52.7C63.5 53 63.5 53.2 63.5 53.5C63.5 58 59.8 61.7 55.3 61.7H55.2C54.3 65.4 51 68 47.2 68C44.2 68 41.4 66.4 40 63.7C38.6 66.4 35.8 68 32.8 68C29 68 25.7 65.4 24.8 61.7H24.7C20.2 61.7 16.5 58 16.5 53.5C16.5 53.2 16.5 53 16.5 52.7C13.7 51.3 12 48.4 12 45.4C12 43.4 12.7 41.5 14 40C12.7 38.5 12 36.6 12 34.6C12 31.5 13.8 28.7 16.5 27.3C16.5 27 16.5 26.8 16.5 26.5C16.5 22 20.2 18.3 24.7 18.3H24.8C25.7 14.6 28.9 12 32.8 12C35.8 12 38.6 13.6 40 16.3C41.4 13.6 44.2 12 47.2 12C51 12 54.3 14.6 55.2 18.3H55.3C59.8 18.3 63.5 22 63.5 26.5C63.5 26.8 63.5 27 63.5 27.3C66.3 28.7 68 31.6 68 34.6C68 36.6 67.3 38.5 66 40ZM47.1 53.6V51.6H47.2C51.7 51.6 55.3 55.2 55.4 59.7C58.8 59.6 61.5 56.9 61.5 53.5C61.5 53.1 61.5 52.7 61.4 52.3L61.2 51.5L62 51.2C64.4 50.3 66 48 66 45.4C66 42 63.2 39.2 59.8 39.2C56.4 39.2 53.6 42 53.6 45.4V45.5H51.6V45.4C51.6 40.9 55.3 37.2 59.8 37.2C61.5 37.2 63.1 37.7 64.5 38.7C65.5 37.6 66 36.1 66 34.6C66 32.4 64.9 30.4 63 29.3C61.8 32.5 58.7 34.7 55.3 34.7H55.2V32.7H55.3C58.7 32.7 61.5 29.9 61.5 26.5C61.5 23.1 58.8 20.4 55.4 20.3C55.3 24.8 51.7 28.4 47.2 28.4H47.1V26.4H47.2C50.6 26.4 53.4 23.6 53.4 20.2C53.4 16.8 50.6 14 47.2 14C43.8 14 41 16.8 41 20.2V23.9H39V20.2C39 16.8 36.2 14 32.8 14C30 14 27.5 15.9 26.8 18.6C30.4 19.6 32.9 22.8 32.9 26.5V26.6H30.9V26.5C30.9 23.1 28.1 20.3 24.7 20.3C21.3 20.3 18.5 23.1 18.5 26.5C18.5 26.9 18.5 27.3 18.6 27.7L18.8 28.5L18 28.8C15.6 29.7 14 32 14 34.6C14 38 16.8 40.8 20.2 40.8H20.3V42.8H20.2C18.5 42.8 16.9 42.3 15.5 41.3C14.5 42.4 14 43.9 14 45.4C14 47.6 15.1 49.6 17 50.7C18.2 47.5 21.3 45.3 24.7 45.3H24.8V47.3H24.7C21.3 47.3 18.5 50.1 18.5 53.5C18.5 56.9 21.3 59.7 24.7 59.7C28.1 59.7 30.9 56.9 30.9 53.5V53.4H32.9V53.5C32.9 57.2 30.4 60.5 26.8 61.4C27.5 64.1 30 66 32.8 66C36.2 66 39 63.2 39 59.8V25.5H41V59.8C41 63.2 43.8 66 47.2 66C50.6 66 53.4 63.2 53.4 59.8C53.4 56.4 50.6 53.6 47.1 53.6ZM46.7 61.8C46.1 61.7 45.6 62 45.4 62.6C45.3 63.2 45.6 63.7 46.2 63.9C46.5 64 46.8 64 47.1 64C48.9 64 50.5 62.8 50.9 61C51 60.4 50.7 59.9 50.1 59.7C49.5 59.6 49 59.9 48.8 60.5C48.7 61 48.4 61.4 48 61.6C47.7 61.8 47.2 61.9 46.7 61.8ZM30.7 38.8C31 38.7 31.2 38.6 31.4 38.3C31.5 38.1 31.6 37.8 31.5 37.5C31.4 37 31.5 36.6 31.7 36.1C32 35.7 32.4 35.4 32.8 35.3C33.4 35.2 33.7 34.6 33.6 34C33.5 33.4 32.9 33.1 32.3 33.2C31.3 33.4 30.4 34 29.9 34.9C29.3 35.8 29.2 36.8 29.4 37.8C29.5 38.1 29.6 38.3 29.9 38.5C30.1 38.6 30.3 38.7 30.5 38.7C30.6 38.9 30.7 38.9 30.7 38.8ZM35.9 43.9C35.4 43.6 34.8 43.8 34.5 44.3C34.3 44.7 33.9 45 33.4 45.2C32.9 45.3 32.5 45.3 32 45.1C31.8 45 31.5 44.9 31.2 45C30.9 45.1 30.7 45.3 30.6 45.5C30.3 46 30.5 46.6 31 46.9C31.6 47.2 32.2 47.4 32.9 47.4C34.3 47.4 35.6 46.7 36.3 45.4C36.4 45.2 36.5 44.9 36.4 44.6C36.3 44.2 36.1 44 35.9 43.9Z" fill="#007934"/>
<path d="M49.5 32.8999C47.8 32.8999 46.3 34.2999 46.3 36.0999C46.3 37.8999 47.7 39.2999 49.5 39.2999C51.2 39.2999 52.7 37.8999 52.7 36.0999C52.7 34.2999 51.3 32.8999 49.5 32.8999ZM51 36.0999C51 36.8999 50.4 37.4999 49.6 37.4999C48.8 37.4999 48.2 36.8999 48.2 36.0999C48.2 35.2999 48.8 34.6999 49.6 34.6999C50.3 34.6999 51 35.2999 51 36.0999ZM43.5 34.5999C43.3 34.3999 43.2 34.0999 43.2 33.8999C43.2 31.7999 44.9 29.9999 47 29.8999C47.6 29.8999 48 30.3999 48 30.8999C48 31.4999 47.6 31.9999 47 31.9999C46.5 31.9999 46.1 32.1999 45.7 32.5999C45.4 32.8999 45.2 33.3999 45.2 33.8999C45.2 34.4999 44.8 34.9999 44.2 34.9999C44 34.8999 43.7 34.7999 43.5 34.5999ZM48.8 42.4999C48.8 40.6999 47.4 39.2999 45.6 39.2999C43.9 39.2999 42.4 40.6999 42.4 42.4999C42.4 44.1999 43.8 45.6999 45.6 45.6999C47.4 45.6999 48.8 44.2999 48.8 42.4999ZM47.1 42.4999C47.1 43.2999 46.5 43.8999 45.7 43.8999C44.9 43.8999 44.3 43.2999 44.3 42.4999C44.3 41.6999 44.9 41.0999 45.7 41.0999C46.4 41.0999 47.1 41.6999 47.1 42.4999ZM50.2 47.1999C49.8 48.0999 49 48.7999 48 49.1999C47.6 49.3999 47.1 49.3999 46.7 49.3999C46.1 49.3999 45.6 49.2999 45 48.9999C44.7 48.8999 44.6 48.6999 44.5 48.3999C44.4 48.0999 44.4 47.8999 44.5 47.5999C44.6 47.2999 44.8 47.1999 45.1 47.0999C45.4 46.9999 45.6 46.9999 45.9 47.0999C46.8 47.4999 47.9 47.0999 48.3 46.2999C48.4 45.9999 48.6 45.8999 48.9 45.7999C49.2 45.6999 49.4 45.6999 49.7 45.7999C50.2 46.0999 50.5 46.6999 50.2 47.1999Z" fill="#F26531"/>
</svg>
