<svg width="80" height="80" viewBox="0 0 80 80" fill="none" xmlns="http://www.w3.org/2000/svg">
<path d="M76.1 15V25.8C76.1 27.3 74.9 28.5 73.4 28.5H70.1L61.7 34.8V28.5H53.6V26.7H63.5V31.2001L69.5 26.7H73.4C73.9 26.7 74.3 26.3 74.3 25.8V15C74.3 14.5 73.9 14.1 73.4 14.1H51.8C51.3 14.1 50.9 14.5 50.9 15V16.4V17.1V18.2C50.9 18.2 49 16.3 49.1 16.4V15C49.1 13.5 50.3 12.3 51.8 12.3H73.5C74.9 12.3 76.1 13.5 76.1 15ZM69.4 23.1C67.9 23.1 66.7 21.9 66.7 20.4C66.7 18.9 67.9 17.7 69.4 17.7C70.9 17.7 72.1 18.9 72.1 20.4C72.1 21.9 70.8 23.1 69.4 23.1ZM69.4 21.3C69.9 21.3 70.3 20.9 70.3 20.4C70.3 19.9 69.9 19.5 69.4 19.5C68.9 19.5 68.5 19.9 68.5 20.4C68.4 20.9 68.9 21.3 69.4 21.3ZM63 23.1C61.5 23.1 60.3 21.9 60.3 20.4C60.3 18.9 61.5 17.7 63 17.7C64.5 17.7 65.7 18.9 65.7 20.4C65.7 21.9 64.5 23.1 63 23.1ZM63 21.3C63.5 21.3 63.9 20.9 63.9 20.4C63.9 19.9 63.5 19.5 63 19.5C62.5 19.5 62.1 19.9 62.1 20.4C62.1 20.9 62.5 21.3 63 21.3ZM56.7 23.1C55.2 23.1 54 21.9 54 20.4C54 18.9 55.2 17.7 56.7 17.7C58.2 17.7 59.4 18.9 59.4 20.4C59.4 21.9 58.2 23.1 56.7 23.1ZM56.7 21.3C57.2 21.3 57.6 20.9 57.6 20.4C57.6 19.9 57.2 19.5 56.7 19.5C56.2 19.5 55.8 19.9 55.8 20.4C55.8 20.9 56.2 21.3 56.7 21.3Z" fill="#F26531"/>
<path fill-rule="evenodd" clip-rule="evenodd" d="M53.5001 28.3C54.6001 29.1 55.3001 30.4 55.3001 31.9C55.3001 34.4 53.3001 36.4 50.8001 36.4H49.9001C49.9001 39.5 48.5001 42.2 46.3001 44.1V45.7L55.2001 48.1C58.0001 48.8 59.9001 51.3 59.9001 54.2V68H20.1001V54.1C20.1001 51.2 22.0001 48.7 24.8001 48L33.7001 45.6V44C32.7001 43.2 31.9001 42.2 31.3001 41.1C31.2001 41 30.6001 39.6 30.4001 39C30.2001 38.1 30.0001 37.2 30.0001 36.3H29.1001C29.0001 36.3 29.0001 36.3 28.9001 36.3C28.9001 36.3 28.4001 36.3 27.8001 36.1C27.2001 35.9 26.4001 35.3 26.4001 35.3C25.3001 34.5 24.6001 33.2 24.6001 31.7C24.6001 30.2 25.3001 28.9 26.4001 28.1V25.4C26.5001 18.1 32.5001 12 40.0001 12C43.5001 12 46.6001 13.3 49.0001 15.5C49.0001 15.5 49.8001 16.2 50.8001 17.5C51.8001 18.8 53.5001 22.6 53.5001 25.6V28.3ZM40.0001 13.8C33.5001 13.8 28.3001 19.1 28.3001 25.5V27.4C28.6001 27.3 28.9001 27.3 29.2001 27.3H30.1001H31.0001C33.7001 27.3 36.2001 26.3 38.1001 24.4L40.1001 22.4L42.1001 24.4C44.0001 26.3 46.5001 27.3 49.2001 27.3H50.1001H51.0001C51.3001 27.3 51.6001 27.3 51.9001 27.4V25.5C51.7001 19.1 46.5001 13.8 40.0001 13.8ZM30.1001 29.2H29.2001C27.7001 29.2 26.5001 30.4 26.5001 31.9C26.5001 33.4 27.7001 34.6 29.2001 34.6H30.1001V29.2ZM38.7001 51.7L34.4001 47.3L31.5001 48.1L35.0001 54.8L38.7001 51.7ZM41.2001 57.2L42.3001 54.9L39.9001 52.9L37.5001 54.9L38.6001 57.2H41.2001ZM41.0001 59H39.0001L38.3001 66.2H41.7001L41.0001 59ZM29.6001 48.6L25.3001 49.7C23.3001 50.2 21.9001 52 21.9001 54.1V60.8H27.3001V56.3H29.1001V66.2H36.4001L37.2001 58.2L36.1001 56.1L34.2001 57.7L29.6001 48.6ZM27.4001 66.2V62.6H22.0001V66.2H27.4001ZM52.6001 62.6V66.2H58.0001V62.6H52.6001ZM58.1001 60.8V54.1C58.1001 52.1 56.7001 50.3 54.7001 49.7L50.4001 48.6L45.7001 57.7L43.8001 56.1L42.7001 58.2L43.5001 66.2H50.8001V56.3H52.6001V60.8H58.1001ZM45.1001 54.8L48.6001 48.1L45.6001 47.3L41.3001 51.7L45.1001 54.8ZM40.0001 50.5L44.5001 46V45.3C43.1001 46 41.6001 46.4 40.0001 46.4C38.4001 46.4 36.8001 46 35.5001 45.3V46L40.0001 50.5ZM40.0001 44.5C44.5001 44.5 48.1001 40.9 48.1001 36.4V29.1C45.3001 28.9 42.7001 27.7 40.7001 25.7L40.0001 25L39.3001 25.7C37.3001 27.7 34.7001 28.9 31.9001 29.1V36.4C31.9001 37.4 32.1001 38.3 32.4001 39.1C32.4001 39.1 32.8001 40.2 33.3001 40.9C34.7001 43.1 37.2001 44.5 40.0001 44.5ZM49.9001 34.6H50.8001C52.3001 34.6 53.5001 33.4 53.5001 31.9C53.5001 30.4 52.3001 29.2 50.8001 29.2H49.9001V34.6Z" fill="#007934"/>
<path d="M43.2 32.2001C43.2 31.7001 43.6 31.3 44.1 31.3C44.6 31.3 45 31.7001 45 32.2001C45 32.7001 44.6 33.1 44.1 33.1C43.6 33.1 43.2 32.7001 43.2 32.2001ZM45 40.1C45 41.6 43.8 42.8 42.3 42.8H38.7C37.5 42.8 36.5 42 36.2 41H33.8H31.7H29.7C28.2 41 27 39.8 27 38.3V35.8C27 35.8 28.1 36.3001 28.8 36.4001V38.3C28.8 38.8 29.2 39.2001 29.7 39.2001H31H32.9H36.2C36.6 38.2001 37.6 37.4001 38.7 37.4001H42.3C43.8 37.4001 45 38.6 45 40.1ZM43.2 40.1C43.2 39.6 42.8 39.2001 42.3 39.2001H38.7C38.2 39.2001 37.8 39.6 37.8 40.1C37.8 40.6 38.2 41 38.7 41H42.3C42.8 41 43.2 40.6 43.2 40.1ZM35.1 33.1C35.6 33.1 36 32.7001 36 32.2001C36 31.7001 35.6 31.3 35.1 31.3C34.6 31.3 34.2 31.7001 34.2 32.2001C34.2 32.7001 34.6 33.1 35.1 33.1Z" fill="#F26531"/>
</svg>
