<svg width="80" height="80" viewBox="0 0 80 80" fill="none" xmlns="http://www.w3.org/2000/svg">
<path d="M27.0996 32.5124L25.1821 30.5954L23.2651 32.5124C22.8027 32.9758 21.9936 32.9768 21.5293 32.5124C21.2969 32.2805 21.1694 31.9724 21.1694 31.6447C21.1694 31.317 21.2968 31.009 21.5293 30.777L23.4468 28.8595L21.5293 26.9425C21.2969 26.7106 21.1694 26.402 21.1694 26.0743C21.1694 25.7472 21.2968 25.4386 21.5293 25.2066C22.0073 24.7286 22.7861 24.7276 23.2651 25.2066L25.1821 27.1241L27.0996 25.2066C27.5776 24.7286 28.3564 24.7276 28.8354 25.2066C29.3134 25.6851 29.3134 26.4639 28.8354 26.9424L26.9179 28.8594L28.8354 30.7769C29.3139 31.2554 29.3139 32.0342 28.8354 32.5123C28.6035 32.7442 28.2949 32.8722 27.9672 32.8722C27.6392 32.8723 27.3311 32.7444 27.0996 32.5124ZM34.7651 55.7824C34.7651 55.4543 34.6377 55.1467 34.4052 54.9152C33.9423 54.4484 33.1327 54.4494 32.6698 54.9142L30.7523 56.8312L28.8353 54.9142C28.3719 54.4494 27.5633 54.4484 27.0995 54.9142C26.8671 55.1466 26.7396 55.4542 26.7396 55.7824C26.7396 56.1106 26.867 56.4181 27.0995 56.6506L29.017 58.5676L27.0995 60.4846C26.8671 60.717 26.7396 61.0246 26.7396 61.3528C26.7396 61.6799 26.867 61.9885 27.0995 62.221C27.5624 62.6839 28.3705 62.6839 28.8353 62.221L30.7523 60.303L32.6698 62.221C32.9012 62.4524 33.2098 62.5804 33.5375 62.5804C33.8652 62.5804 34.1737 62.4525 34.4052 62.221C34.6376 61.9886 34.7651 61.68 34.7651 61.3528C34.7651 61.0247 34.6377 60.7171 34.4052 60.4846L32.4882 58.5676L34.4052 56.6506C34.6377 56.4182 34.7651 56.1106 34.7651 55.7824ZM48.6914 45.5705C48.6914 45.2424 48.5635 44.9348 48.331 44.7033C47.8662 44.2365 47.0595 44.2375 46.5947 44.7023L44.6777 46.6193L42.7607 44.7033C42.2959 44.2365 41.4892 44.2365 41.0244 44.7033C40.7925 44.9347 40.665 45.2424 40.665 45.5705C40.665 45.8986 40.7924 46.2062 41.0244 46.4387L42.9424 48.3557L41.0244 50.2717C40.5464 50.7512 40.5464 51.5295 41.0244 52.009C41.4892 52.4719 42.2959 52.4719 42.7607 52.009L44.6777 50.091L46.5947 52.009C46.8271 52.2404 47.1347 52.3684 47.4629 52.3684C47.7911 52.3684 48.0986 52.2405 48.3311 52.009C48.5635 51.7766 48.6915 51.468 48.6915 51.1408C48.6915 50.8127 48.5636 50.5041 48.3311 50.2717L46.4131 48.3557L48.3301 46.4387C48.5635 46.2063 48.6914 45.8987 48.6914 45.5705ZM62.2568 56.7707L60.3388 54.8537L62.2568 52.9367C62.7353 52.4582 62.7353 51.6789 62.2558 51.2004C61.7763 50.7238 60.998 50.7238 60.5204 51.2004L58.6034 53.1184L56.6864 51.2004C56.2079 50.7219 55.4276 50.7219 54.951 51.2004C54.7176 51.4328 54.5897 51.7404 54.5897 52.0686C54.5897 52.3968 54.7176 52.7043 54.9501 52.9368L56.8681 54.8538L54.9511 56.7708C54.7177 57.0032 54.5898 57.3108 54.5898 57.639C54.5898 57.9672 54.7177 58.2747 54.9502 58.5072C55.415 58.9701 56.2217 58.9701 56.6865 58.5072L58.6035 56.5892L60.5205 58.5072C60.7529 58.7386 61.0605 58.8666 61.3887 58.8666C61.7169 58.8666 62.0244 58.7387 62.2569 58.5072C62.7354 58.0285 62.7354 57.2492 62.2568 56.7707ZM52.1045 27.302C49.3799 27.302 47.1631 25.0857 47.1631 22.3611C47.1631 19.637 49.3799 17.4207 52.1045 17.4207C54.8291 17.4207 57.0459 19.637 57.0459 22.3611C57.0459 25.0857 54.8291 27.302 52.1045 27.302ZM52.1045 19.8752C50.7334 19.8752 49.6191 20.9904 49.6191 22.361C49.6191 23.7321 50.7334 24.8473 52.1045 24.8473C53.4756 24.8473 54.5899 23.7321 54.5899 22.361C54.5898 20.9905 53.4756 19.8752 52.1045 19.8752Z" fill="#F26531"/>
<path d="M64.1377 11.8501H15.8628C13.6499 11.8501 11.8501 13.6499 11.8501 15.8623V64.1377C11.8501 66.3496 13.6499 68.1504 15.8628 68.1504H18.6475C19.3243 68.1504 19.875 67.5986 19.875 66.9219C19.875 66.2452 19.3242 65.6944 18.6475 65.6944H15.8628C15.0039 65.6944 14.3052 64.9962 14.3052 64.1378V15.8623C14.3052 15.0034 15.0039 14.3047 15.8628 14.3047H64.1377C64.9961 14.3047 65.6943 15.0034 65.6943 15.8623V64.1377C65.6943 64.9961 64.9961 65.6943 64.1377 65.6943H23.5884V44.6416C23.5884 41.2236 26.3696 38.4424 29.7881 38.4424C33.2061 38.4424 35.9873 41.2236 35.9873 44.6416V50.2119C35.9873 54.9834 39.8696 58.8662 44.6416 58.8662C49.4141 58.8662 53.2969 54.9834 53.2969 50.2119V32.7515L56.7705 36.2261C57.2353 36.69 58.042 36.69 58.5068 36.2261C58.7392 35.9942 58.8672 35.6861 58.8672 35.3579C58.8672 35.0303 58.7393 34.7222 58.5068 34.4902L52.9375 28.9214C52.8252 28.8076 52.6904 28.7178 52.5381 28.6543C52.2412 28.5313 51.8985 28.5313 51.5996 28.6543C51.4482 28.7173 51.3135 28.8071 51.2002 28.9214L45.6299 34.4902C45.1524 34.9687 45.1524 35.7475 45.6309 36.226C46.1094 36.7045 46.8868 36.7035 47.3672 36.226L50.8408 32.7514V50.2119C50.8408 53.6308 48.0605 56.4111 44.6416 56.4111C41.2236 56.4111 38.4424 53.6308 38.4424 50.2119V44.6416C38.4424 39.8696 34.5601 35.9873 29.7881 35.9873C25.0161 35.9873 21.1338 39.8696 21.1338 44.6416V66.9219C21.1338 67.5987 21.6846 68.1504 22.3613 68.1504H64.1377C66.3496 68.1504 68.1504 66.3496 68.1504 64.1377V15.8623C68.1504 13.6499 66.3496 11.8501 64.1377 11.8501Z" fill="#007934"/>
</svg>
