<svg width="80" height="80" viewBox="0 0 80 80" fill="none" xmlns="http://www.w3.org/2000/svg">
<path d="M35.2 39.4C35.4 39.4 35.7 39.4 36 39.3C37.3 39.1 38.4 38.4 39.2 37.3C40 36.2 40.3 34.9 40.1 33.7C39.9 32.4 39.2 31.3 38.2 30.5C37.2 29.7 35.9 29.4 34.6 29.6C33.3 29.8 32.1 30.5 31.4 31.5C30.6 32.5 30.3 33.8 30.5 35.1C30.7 37.6 32.8 39.4 35.2 39.4ZM34.8 32.1C34.9 32.1 35 32.1 35 32.1C35.1 32.1 35.1 32.1 35.2 32.1C36.4 32.1 37.5 33 37.6 34.2C37.7 34.8 37.6 35.5 37.2 36C36.8 36.5 36.2 36.9 35.6 37C34.2 37.2 33 36.3 32.8 34.9C32.5 33.6 33.4 32.3 34.8 32.1ZM50.4 33.5C50.4 33.8 50.2 34.1 50 34.3L31.6 48.8C31.5 48.9 31.4 48.9 31.2 49C31.1 49 30.9 49.1 30.8 49.1C30.4 49.1 30.1 48.9 29.8 48.6C29.6 48.4 29.5 48.1 29.5 47.7C29.5 47.4 29.7 47.1 29.9 46.9L48.3 32.4C48.9 32 49.6 32.1 50 32.6C50.4 32.8 50.5 33.2 50.4 33.5ZM44.9 41.8C42.2 41.8 40 44 40 46.7C40 49.4 42.2 51.6 44.9 51.6C47.6 51.6 49.8 49.4 49.8 46.7C49.8 44 47.6 41.8 44.9 41.8ZM42.4 46.7C42.4 45.4 43.5 44.2 44.9 44.2C46.3 44.2 47.4 45.3 47.4 46.7C47.3 48.1 46.3 49.2 44.9 49.2C43.5 49.1 42.4 48 42.4 46.7Z" fill="#F26531"/>
<path d="M68 39.9999C68 39.8999 68 39.8999 68 39.7999C68 36.9999 65.1 35.5999 62.7 34.4999C61.1 33.6999 59.2 32.7999 58.8 31.7999C58.4 30.7999 59 28.9999 59.7 27.1999C60.6 24.7999 61.6 21.9999 59.8 20.1999C58 18.4999 55.6 18.9999 53.2 19.4999L52.7 19.5999C51.1 19.8999 49.5 20.2999 48.5 19.8999C47.4 19.3999 46.4 17.7999 45.6 16.4999L45.5 16.2999C44.2 14.2999 42.7 11.8999 40 11.8999C37.3 11.8999 35.7 14.3999 34.5 16.4999C33.6 17.9999 32.7 19.4999 31.6 19.8999C30.5 20.3999 28.5 19.8999 27.1 19.4999C24.7 18.8999 22 18.1999 20.3 19.9999C18.5 21.7999 19.3 24.2999 20.1 26.7999V26.8999C20.7 28.6999 21.2 30.4999 20.8 31.5999C20.4 32.5999 18.8 33.3999 17.2 34.1999L17 34.4999C14.7 35.6999 12 37.0999 12 39.6999C12 39.7999 12 39.8999 12 39.9999C12 40.0999 12 40.0999 12 40.1999C12 42.9999 14.9 44.3999 17.1 45.4999L17.3 45.5999C18.8 46.3999 20.4 47.1999 20.9 48.1999C21.3 49.1999 20.8 50.8999 20.3 52.5999L20.2 52.9999C19.4 55.4999 18.6 58.0999 20.4 59.7999C22.2 61.5999 24.7 60.8999 27.1 60.2999H27.2C28.6 59.8999 30.6 59.4999 31.7 59.8999C32.8 60.3999 33.7 61.8999 34.6 63.2999C35.8 65.2999 37.4 67.8999 40.1 67.8999C42.9 67.8999 44.5 65.2999 45.7 63.3999C46.5 62.0999 47.5 60.4999 48.6 60.0999C49.7 59.5999 51.4 59.9999 53.1 60.3999H53.2C55.6 60.9999 58.1 61.4999 59.9 59.7999C61.7 57.9999 60.7 55.1999 59.8 52.7999C59.2 51.0999 58.5 49.2999 58.9 48.1999C59.4 47.0999 61.1 46.2999 62.8 45.4999L63 45.3999C65.4 44.1999 68.1 42.7999 68.1 40.1999C68 40.0999 68 40.0999 68 39.9999C68 39.9999 67.9 39.9999 68 39.9999ZM56.7 47.3999C55.9 49.1999 56.6 51.2999 57.3 53.2999L57.5 53.7999C58.2 55.5999 58.8 57.4999 58.1 58.1999C57.2 59.0999 55.3 58.5999 53.5 58.1999C51.3 57.6999 49.4 57.2999 47.6 57.9999C45.9 58.6999 44.8 60.2999 43.6 62.1999V62.2999C42.5 63.9999 41.4 65.6999 40 65.6999C38.6 65.6999 37.5 63.9999 36.4 62.1999C35.3 60.2999 34.2 58.5999 32.4 57.8999C31.7 57.5999 31 57.4999 30.3 57.4999C29.1 57.4999 27.7 57.7999 26.4 58.1999H26.2C24.3 58.6999 22.6 59.0999 21.7 58.2999C20.9 57.4999 21.5 55.4999 22.1 53.6999L22.2 53.4999C22.9 51.3999 23.5 49.2999 22.7 47.4999C21.9 45.5999 19.8 44.5999 17.9 43.5999C16 42.5999 14.1 41.6999 14.1 40.2999C14.1 40.1999 14.1 40.0999 14.1 39.9999C14.1 39.8999 14.1 39.8999 14.1 39.7999C14.1 38.4999 15.8 37.5999 17.7 36.5999L17.9 36.4999C19.8 35.5999 21.9 34.4999 22.7 32.5999C23.5 30.5999 22.7 28.2999 22.1 26.3999C21.5 24.4999 20.9 22.5999 21.7 21.7999C22.6 20.8999 24.5 21.3999 26.3 21.8999L26.5 21.9999C28.5 22.4999 30.5 22.9999 32.3 22.1999C34 21.4999 35.1 19.7999 36.3 17.8999L36.4 17.6999C37.5 15.8999 38.5 14.2999 39.9 14.2999C41.3 14.2999 42.4 15.8999 43.5 17.6999V17.7999C44.6 19.4999 45.7 21.1999 47.5 21.9999C49.2 22.6999 51.2 22.2999 53.1 21.8999L53.4 21.7999C55.2 21.3999 57.1 20.8999 58 21.7999C58.8 22.4999 58.1 24.3999 57.4 26.1999V26.2999C56.6 28.2999 55.8 30.6999 56.6 32.5999C57.3 34.3999 59.4 35.3999 61.3 36.3999L61.6 36.4999C63.8 37.4999 65.5 38.4999 65.5 39.7999C65.5 39.8999 65.5 39.9999 65.5 40.0999C65.5 40.1999 65.5 40.1999 65.5 40.2999C65.6 41.3999 63.2 42.4999 61.6 43.2999L61.3 43.3999C59.5 44.5999 57.4 45.5999 56.7 47.3999Z" fill="#007934"/>
</svg>
