<svg width="80" height="80" viewBox="0 0 80 80" fill="none" xmlns="http://www.w3.org/2000/svg">
<path d="M26.0717 59.9798L15.1554 46.7947C15.0174 46.6275 14.8165 46.5242 14.591 46.503C14.3285 46.4806 14.058 46.567 13.8443 46.7453C13.4297 47.0876 13.3428 47.6687 13.6502 48.0424L24.5666 61.2263C24.7281 61.4215 24.9677 61.5204 25.2185 61.5204C25.4446 61.5204 25.6803 61.4407 25.8771 61.2769C26.2922 60.9336 26.3798 60.3512 26.0717 59.9798Z" fill="#F26531"/>
<path d="M13.6476 22.0566C13.436 21.9034 13.2975 21.6767 13.2566 21.4193C13.2157 21.1612 13.2774 20.9031 13.4311 20.6916C13.5843 20.4801 13.811 20.3415 14.069 20.3006C14.3294 20.2608 14.5851 20.3225 14.7961 20.4756L29.561 31.2046C29.772 31.3583 29.9105 31.5844 29.9514 31.8425C29.9923 32.1 29.9301 32.358 29.7769 32.569C29.7473 32.6098 29.7014 32.6272 29.6671 32.6622L29.6591 32.7048L29.4914 32.8316C28.9001 33.193 28.5466 33.8218 28.5466 34.5136C28.5466 35.5986 29.4297 36.4817 30.5147 36.4817C31.6014 36.4817 32.4861 35.5986 32.4861 34.5136C32.4861 33.9447 32.9091 33.5919 33.1587 33.4729L33.5093 33.318L33.8807 33.405L33.9497 33.5632C33.9974 33.6726 34.0367 33.7432 34.0675 33.7994C34.1802 34.0041 34.2263 34.1259 34.2263 34.5136C34.2263 36.5601 32.5612 38.2253 30.5146 38.2253C28.4679 38.2253 26.8028 36.5603 26.8028 34.5136C26.8028 33.6012 27.0936 32.823 27.636 32.222L13.6476 22.0566ZM49.8613 31.8419C49.8199 32.1 49.8827 32.358 50.0353 32.569C50.113 32.6759 50.2101 32.7636 50.3199 32.8301C50.3206 32.8306 50.3207 32.8312 50.3214 32.8315C50.9127 33.1929 51.2662 33.8217 51.2662 34.5135C51.2662 35.5985 50.3831 36.4816 49.2981 36.4816C48.2108 36.4816 47.3267 35.5985 47.3267 34.5135C47.3267 33.9446 46.9037 33.5918 46.6445 33.4688L46.4695 33.3988L46.0363 33.0907L45.8668 33.4795C45.8275 33.5681 45.7939 33.6372 45.7647 33.6961C45.6446 33.9446 45.5863 34.0832 45.5863 34.5135C45.5863 36.56 47.2513 38.2252 49.298 38.2252C51.3447 38.2252 53.0098 36.5601 53.0098 34.5135C53.0098 33.6199 52.71 32.8384 52.1651 32.23L66.1657 22.0566C66.601 21.7402 66.6987 21.1275 66.3823 20.6916C66.0625 20.2551 65.452 20.1598 65.0156 20.4756L50.2518 31.2046C50.0409 31.3578 49.9018 31.5844 49.8613 31.8419ZM20.4969 32.573C20.1495 34.5395 20.322 36.5294 21.0227 38.3907C22.4077 42.0676 25.6651 44.7206 29.4883 45.6032C26.6141 46.7291 24.57 49.5233 24.57 52.7921V52.9929C24.57 53.4742 24.9604 53.8648 25.4413 53.8648C25.9221 53.8648 26.3131 53.4743 26.3131 52.9929V52.7921C26.3131 49.4944 28.996 46.8116 32.2936 46.8116H36.3189V45.0679H34.1212L33.8073 44.076L33.5239 44.1097C28.8148 44.6651 24.2469 42.0048 22.6542 37.7758C22.163 36.4709 21.9817 35.0748 22.1078 33.6765L23.3695 34.5409C23.5339 34.6537 23.7246 34.712 23.9198 34.712C23.9798 34.712 24.041 34.7064 24.1016 34.6953C24.3579 34.6476 24.5807 34.5022 24.7282 34.2874C24.8758 34.0719 24.9308 33.8122 24.8825 33.5552C24.8343 33.2989 24.6895 33.0761 24.4741 32.9286L13.7866 25.6067C13.3423 25.3021 12.7336 25.416 12.4284 25.8597V25.8603C12.1238 26.3051 12.2377 26.9144 12.6826 27.219L20.4969 32.573ZM34.0376 55.2463C34.0377 55.239 34.0418 55.2331 34.0418 55.2258V52.1391C34.0418 51.6005 33.6037 51.1618 33.065 51.1618C32.5259 51.1618 32.0877 51.6005 32.0877 52.1391V54.5914L21.7341 58.8276C21.2359 59.0318 20.9964 59.6029 21.2001 60.1023C21.2994 60.3446 21.4862 60.5331 21.7269 60.6341C21.8487 60.6846 21.9766 60.7104 22.1044 60.7104C22.2296 60.7104 22.3553 60.6857 22.4748 60.6363L33.4332 56.1516C33.8107 55.9968 34.0373 55.6311 34.0376 55.2463ZM55.2169 57.6573L47.7239 54.5914V52.1391C47.7239 51.6005 47.2863 51.1618 46.7477 51.1618C46.2092 51.1618 45.7704 51.6005 45.7704 52.1391V55.2258C45.7704 55.2335 45.7746 55.2397 45.7748 55.2473C45.7749 55.6318 46.0016 55.9968 46.3797 56.1514L54.4776 59.466C54.5965 59.5154 54.7222 59.5401 54.8479 59.5401C54.9757 59.5401 55.1037 59.5142 55.226 59.4627C55.4661 59.3617 55.6535 59.1731 55.7522 58.9308H55.7534C55.9551 58.4326 55.715 57.8604 55.2169 57.6573ZM17.6291 34.5304C17.7531 34.5825 17.8821 34.6078 18.0095 34.6078C18.3899 34.6078 18.7523 34.384 18.9105 34.012C19.1209 33.5161 18.8881 32.941 18.3921 32.7306L13.5466 30.6773C13.054 30.4708 12.4762 30.6997 12.2652 31.1957C12.0554 31.6916 12.2877 32.2661 12.7837 32.4776L17.6291 34.5304ZM17.9943 37.6283C18.2547 37.6283 18.4998 37.5273 18.6839 37.3428C18.8689 37.1583 18.9705 36.9131 18.9705 36.6528C18.9717 36.1141 18.534 35.6749 17.9943 35.6743L13.5656 35.671C13.5651 35.671 13.5645 35.671 13.5639 35.671C13.3036 35.671 13.059 35.7719 12.8744 35.9565C12.6899 36.1405 12.5878 36.3856 12.5878 36.6465V36.6471C12.5878 37.1862 13.0259 37.6244 13.5639 37.6244L17.9926 37.6283C17.9932 37.6283 17.9938 37.6283 17.9943 37.6283ZM20.0207 40.1647C20.138 39.9313 20.1575 39.6659 20.0751 39.4186C19.9068 38.9081 19.3543 38.6292 18.8409 38.7981L15.2325 39.992C14.9851 40.0733 14.7837 40.2467 14.6664 40.4801C14.5491 40.7134 14.5295 40.9783 14.6119 41.2262C14.7471 41.6357 15.1303 41.8961 15.541 41.8961C15.6419 41.8961 15.7451 41.8803 15.8461 41.8478L19.4546 40.6533C19.7026 40.5714 19.9035 40.3975 20.0207 40.1647ZM22.0438 42.9821C22.1117 42.7296 22.0774 42.466 21.9467 42.2393C21.6774 41.7736 21.0799 41.6132 20.6126 41.8814L18.5772 43.0539C18.3511 43.1829 18.189 43.3939 18.1211 43.6451C18.0532 43.8976 18.0874 44.1613 18.2182 44.388C18.3982 44.7021 18.7281 44.8772 19.0665 44.8772C19.2314 44.8772 19.3992 44.8357 19.5524 44.747L21.5878 43.5745C21.8138 43.4444 21.9759 43.2346 22.0438 42.9821ZM24.9409 44.4363C24.7502 44.2579 24.5044 44.1771 24.2407 44.176C23.9793 44.1861 23.7375 44.296 23.5602 44.4879L22.2911 45.8556C21.9259 46.2507 21.9494 46.87 22.3433 47.2358C22.5251 47.4053 22.7596 47.4972 23.0064 47.4972C23.0187 47.4972 23.0311 47.496 23.0434 47.496C23.3048 47.4859 23.5466 47.376 23.7239 47.1841L24.9929 45.8164C25.3588 45.4215 25.3352 44.802 24.9409 44.4363ZM67.014 30.6711C66.7716 30.5746 66.5079 30.5757 66.2655 30.6773L61.4205 32.7312C60.9257 32.941 60.6923 33.5155 60.9021 34.0125C61.0603 34.3839 61.4239 34.6072 61.8043 34.6072C61.9311 34.6072 62.0602 34.5825 62.1836 34.5304L67.0285 32.4771C67.5256 32.2661 67.7579 31.691 67.547 31.1957C67.4448 30.9556 67.2564 30.7692 67.014 30.6711ZM66.2476 35.6704L61.8189 35.6743C61.2792 35.6749 60.8416 36.1135 60.8416 36.6528C60.8427 37.1908 61.2826 37.6283 61.82 37.6283L66.2487 37.6244C66.7874 37.6244 67.2249 37.1863 67.2249 36.6471C67.2249 36.1085 66.7862 35.6704 66.2476 35.6704ZM64.5803 39.9919L60.9719 38.7974C60.4602 38.6291 59.907 38.9079 59.7376 39.4184C59.6557 39.6658 59.6748 39.9312 59.7927 40.164C59.9094 40.3974 60.1103 40.5713 60.3594 40.6532L63.9678 41.8477C64.0688 41.8802 64.1709 41.896 64.2718 41.896C64.6825 41.896 65.0651 41.6367 65.202 41.2273C65.284 40.9793 65.2637 40.7139 65.147 40.48C65.0291 40.2472 64.8283 40.0738 64.5803 39.9919ZM61.2355 43.0539L59.2001 41.8814C58.7344 41.6109 58.1363 41.7747 57.866 42.2404C57.5978 42.7071 57.7582 43.3063 58.225 43.5745L60.2616 44.747C60.4142 44.8356 60.5813 44.8772 60.7463 44.8772C61.0852 44.8772 61.414 44.701 61.5946 44.388C61.7259 44.1624 61.7596 43.8987 61.6923 43.6463C61.6237 43.3939 61.4621 43.1829 61.2355 43.0539ZM56.2525 44.4879C55.8878 44.0952 55.2651 44.0693 54.8713 44.4363C54.4774 44.8022 54.455 45.4215 54.8209 45.8175L56.0888 47.1842C56.2806 47.3918 56.5432 47.4961 56.8057 47.4961C57.0436 47.4961 57.2815 47.4097 57.4699 47.2358C57.6618 47.0585 57.7718 46.8162 57.7807 46.5558C57.7908 46.2944 57.6977 46.0453 57.5204 45.8545L56.2525 44.4879ZM55.595 32.9286C55.3796 33.0761 55.2348 33.2989 55.1866 33.5552C55.1383 33.8122 55.1934 34.0719 55.3415 34.2868C55.4884 34.5022 55.7106 34.6476 55.9675 34.6953C56.0281 34.7065 56.0888 34.712 56.1493 34.712C56.3445 34.712 56.5352 34.6537 56.7002 34.5409L57.7155 33.8455C57.8122 35.1879 57.6302 36.5244 57.1591 37.7753C55.5659 42.0059 51.0002 44.6697 46.2889 44.1098L46.0061 44.0761L45.6922 45.068H44.0627V46.8117H47.8889C51.1866 46.8117 53.8694 49.4945 53.8694 52.7922V52.993C53.8694 53.4743 54.2598 53.8649 54.7412 53.8649C55.2227 53.8649 55.6131 53.4745 55.6131 52.993V52.7922C55.6131 49.4654 53.4952 46.6315 50.5399 45.5466C54.2691 44.6151 57.4319 41.9981 58.7907 38.3902C59.4721 36.5792 59.6519 34.6464 59.3416 32.7316L67.3877 27.2191C67.6031 27.0716 67.7479 26.8488 67.795 26.5919C67.8433 26.3356 67.7882 26.0758 67.6401 25.8604V25.8598C67.3372 25.4177 66.728 25.3032 66.2825 25.6068L55.595 32.9286ZM43.3468 56.0623V53.481C43.3468 51.6061 44.8727 50.0801 46.7477 50.0801C48.6228 50.0801 50.1487 51.606 50.1487 53.481V54.1452H50.2234C50.3582 54.4522 50.6636 54.6681 51.0205 54.6681C51.3767 54.6681 51.6818 54.4522 51.8165 54.1452H51.8912V53.481C51.8912 50.6444 49.5843 48.3375 46.7477 48.3375C43.9112 48.3375 41.6032 50.6444 41.6032 53.481V54.9139V56.9997V57.0356L41.6431 57.0261L50.5547 62.8983L44.3923 66.169L43.2324 62.2722L43.1572 62.0265H43.1214C42.9655 61.783 42.6928 61.6281 42.3898 61.6281C41.9085 61.6281 41.518 62.0185 41.518 62.5C41.518 62.6021 41.5359 62.7041 41.5662 62.7839L43.6766 69.8452C41.2965 70.6287 38.6887 70.6236 36.3054 69.8442L38.4077 62.775C38.4375 62.6875 38.4521 62.5956 38.4521 62.5001C38.4521 62.0188 38.0617 61.6282 37.5808 61.6282C37.1768 61.6282 36.8285 61.902 36.7382 62.2757L35.5576 66.2412L29.2576 62.8984L38.1717 57.0267L38.2092 57.0357V57.002V54.9139V53.481C38.2092 50.6444 35.9017 48.3375 33.0651 48.3375C30.2286 48.3375 27.9211 50.6444 27.9211 53.481V54.1452H27.9959C28.1308 54.4522 28.4363 54.6681 28.7929 54.6681C29.1496 54.6681 29.4547 54.4522 29.5895 54.1452H29.6642V53.481C29.6642 51.6061 31.1901 50.0801 33.0651 50.0801C34.9401 50.0801 36.4661 51.606 36.4661 53.481V56.0619L27.0718 62.2497C26.8154 62.418 26.665 62.7131 26.6796 63.0205C26.6948 63.3269 26.8721 63.6063 27.1419 63.7476L35.05 67.9457L34.6673 69.2313L34.6596 69.2276L34.6553 69.2716L34.3701 70.2296C34.2916 70.4922 34.3427 70.7806 34.5065 70.9993C34.5534 71.0624 34.6222 71.1 34.6833 71.1476C34.6946 71.1621 34.7086 71.167 34.721 71.1793C34.7603 71.2064 34.7915 71.2419 34.8347 71.2623C34.8468 71.2684 34.8575 71.2829 34.8695 71.2878C36.4925 71.9454 38.2109 72.2786 39.9758 72.2786C41.7582 72.2786 43.4907 71.9398 45.1266 71.2699C45.133 71.2672 45.1363 71.2613 45.1426 71.2584C45.1723 71.2441 45.1935 71.2194 45.2215 71.2019C45.2532 71.1785 45.2883 71.1582 45.3126 71.1274C45.3627 71.0862 45.422 71.0568 45.4621 71.0052C45.6304 70.7864 45.682 70.4969 45.6012 70.2299L44.8999 67.8737L52.6701 63.7489C52.9416 63.6064 53.1189 63.327 53.1335 63.0207C53.1481 62.7132 52.9977 62.4181 52.7419 62.2498L43.3468 56.0623ZM26.9562 24.1721L26.9656 24.2043L27.2776 24.1386C27.9065 24.0069 28.4343 23.9187 28.9668 23.9187C29.9997 23.9187 30.973 24.1706 31.8375 24.6073C31.5448 25.2851 30.9337 25.8028 29.9737 26.1701L29.9322 26.1861C29.8819 26.2015 29.8346 26.2175 29.7886 26.2414L29.7112 26.2711L29.7145 26.2913C29.4776 26.4473 29.3117 26.7027 29.3117 27.0072C29.3117 27.4124 29.5948 27.7381 29.9699 27.8353L29.9726 27.8514L30.1222 27.8661C30.1433 27.8676 30.1615 27.8784 30.183 27.8784C30.1904 27.8784 30.1966 27.8744 30.2041 27.8742L30.2363 27.8773C30.3036 27.8835 30.3703 27.8868 30.4371 27.8868C31.6285 27.8868 32.7108 26.8692 33.3046 25.6286C34.5658 26.7974 35.3612 28.4621 35.3612 30.3132V34.0456H37.1043V30.3132C37.1043 26.2179 34.0603 22.8292 30.0574 22.2667C30.8081 21.9332 31.5919 21.7812 32.4882 21.7812C36.1029 21.7812 39.0444 24.7007 39.0444 28.2885V34.1747H40.7875V28.2885C40.7875 23.7391 37.0646 20.0381 32.4884 20.0381C29.6249 20.0381 27.3881 21.0283 26.3508 22.7556L26.2589 22.9089C26.2445 22.9357 26.2242 22.9576 26.2127 22.9859L26.1994 23.0081L26.207 23.0144C26.1724 23.1082 26.1466 23.2069 26.1466 23.3126C26.1465 23.7718 26.5057 24.1388 26.9562 24.1721ZM41.4484 24.6553C41.6158 24.6553 41.7633 24.5954 41.8961 24.5132L41.9196 24.5246L42.0346 24.4197C42.0485 24.4068 42.0627 24.3957 42.0758 24.382L42.0922 24.3669C44.0132 22.6149 45.2867 21.7812 47.3243 21.7812C48.1849 21.7812 49.0254 21.9383 49.8063 22.2412C45.8085 22.7529 42.7083 26.1779 42.7083 30.3132V34.0456H44.4508V30.3132C44.4508 28.4676 45.2416 26.8071 46.4964 25.6389C47.0611 26.8718 48.0864 27.8857 49.362 27.8857C49.4282 27.8857 49.4944 27.8829 49.5617 27.8773L49.6058 27.8737C49.614 27.8739 49.6209 27.8784 49.629 27.8784C49.6483 27.8784 49.6644 27.8688 49.6833 27.8675L49.832 27.8554L49.8349 27.8368C50.214 27.7422 50.5007 27.4149 50.5007 27.0072C50.5007 26.6942 50.3262 26.4318 50.0779 26.278L50.081 26.2577L50.0038 26.228C49.9735 26.2133 49.9428 26.2035 49.9108 26.1923L49.8207 26.1577C48.8854 25.7998 48.2747 25.2768 47.9793 24.605C48.8427 24.1698 49.8141 23.9187 50.8451 23.9187C51.3657 23.9187 51.9672 23.9956 52.4407 24.11C52.9949 24.3558 53.6659 23.916 53.6659 23.3129C53.6659 23.2057 53.6457 23.1002 53.6087 23.0021L53.6525 22.9634L53.4168 22.6975C53.4258 22.707 53.4336 22.7177 53.4415 22.7294C53.437 22.7244 53.4326 22.7199 53.4281 22.7154L53.0567 22.3334C51.735 20.8316 49.7523 20.0382 47.3242 20.0382C44.3698 20.0382 42.2761 21.0688 40.7367 23.2815L40.6133 23.4582L40.6344 23.4963C40.6022 23.5873 40.5762 23.682 40.5762 23.7841C40.5765 24.2648 40.9669 24.6553 41.4484 24.6553Z" fill="#007934"/>
<path d="M42.8868 16.9801C43.4255 16.9801 43.8641 17.4182 43.8641 17.9574C43.8641 18.496 43.4255 18.9341 42.8868 18.9341H37.0848C36.5461 18.9341 36.108 18.496 36.108 17.9574C36.108 17.4183 36.5461 16.9801 37.0848 16.9801H42.8868ZM64.2617 59.5041C64.2617 62.2452 62.031 64.4758 59.29 64.4758C56.5477 64.4758 54.3171 62.2452 54.3171 59.5041C54.3171 56.7618 56.5477 54.5312 59.29 54.5312C62.031 54.5312 64.2617 56.7618 64.2617 59.5041ZM59.29 56.2749C57.5093 56.2749 56.0608 57.7234 56.0608 59.5041C56.0608 61.2848 57.5093 62.7333 59.29 62.7333C61.0706 62.7333 62.5191 61.2848 62.5191 59.5041C62.5191 57.7234 61.0706 56.2749 59.29 56.2749ZM59.29 52.9469C60.0608 52.9469 60.688 52.3197 60.688 51.5489C60.688 50.7769 60.0608 50.1496 59.29 50.1496C58.5191 50.1496 57.8919 50.7769 57.8919 51.5489C57.8919 52.3197 58.5191 52.9469 59.29 52.9469ZM39.9858 9.07585C40.7572 9.07585 41.3844 8.44862 41.3844 7.6772C41.3844 6.90579 40.7572 6.27856 39.9858 6.27856C39.2144 6.27856 38.5871 6.90579 38.5871 7.6772C38.5871 8.44862 39.2144 9.07585 39.9858 9.07585ZM34.651 12.7623C34.651 11.0461 36.0468 9.65033 37.763 9.65033H37.8578L39.8455 10.8347L41.8321 9.65033H41.9274C43.6441 9.65033 45.04 11.6479 45.04 13.3641C45.04 15.0804 43.6442 15.8743 41.9274 15.8743H37.763C36.0469 15.8743 34.651 14.4785 34.651 12.7623ZM37.763 14.1312H41.9274C42.6825 14.1312 43.2963 13.5168 43.2963 12.7623C43.2963 12.038 42.7308 11.4434 42.0172 11.3968L39.8455 12.6911L37.6733 11.3968C36.9602 11.4427 36.3941 12.038 36.3941 12.7623C36.3941 13.517 37.0085 14.1312 37.763 14.1312ZM47.3233 34.5864V44.9917C47.3233 45.9947 46.5065 46.8117 45.5034 46.8117H42.687L41.501 48.4218C41.1667 48.8931 40.6427 49.1713 40.0654 49.187C40.0491 49.187 40.0329 49.187 40.0166 49.187C39.4578 49.187 38.9406 48.9379 38.5922 48.4981L37.2782 46.8408L34.3093 46.8117C33.3051 46.8117 32.4888 45.9949 32.4888 44.9917V34.5864C32.4888 33.5828 33.305 32.7664 34.3093 32.7664H45.5034C46.5065 32.7664 47.3233 33.5828 47.3233 34.5864ZM45.5035 34.5095H34.3094C34.2668 34.5095 34.232 34.5443 34.232 34.5864V44.9917C34.232 45.0332 34.2674 45.0691 34.3094 45.0691H37.2183C37.7776 45.0691 38.2977 45.3205 38.6449 45.758L39.9578 47.4142L40.0811 47.4108L41.2038 45.8333C41.5438 45.3542 42.0981 45.0692 42.6871 45.0692H45.5035C45.545 45.0692 45.5798 45.0334 45.5798 44.9918V34.5865C45.5798 34.5443 45.545 34.5095 45.5035 34.5095Z" fill="#F26531"/>
</svg>
